<svg width="20" height="17" viewBox="0 0 20 17" fill="none" xmlns="http://www.w3.org/2000/svg">
<path d="M20 8.5C20 8.72542 19.9122 8.94161 19.7559 9.10101C19.5997 9.2604 19.3877 9.34995 19.1667 9.34995H2.84535L8.92328 15.5482C9.0007 15.6272 9.06212 15.721 9.10402 15.8241C9.14592 15.9273 9.16749 16.0379 9.16749 16.1496C9.16749 16.2613 9.14592 16.3718 9.10402 16.475C9.06212 16.5782 9.0007 16.6719 8.92328 16.7509C8.84586 16.8299 8.75394 16.8925 8.65279 16.9353C8.55163 16.978 8.44321 17 8.33372 17C8.22422 17 8.1158 16.978 8.01465 16.9353C7.91349 16.8925 7.82157 16.8299 7.74415 16.7509L0.244397 9.10134C0.16692 9.0224 0.105456 8.92866 0.0635204 8.82548C0.0215848 8.7223 0 8.6117 0 8.5C0 8.3883 0.0215848 8.2777 0.0635204 8.17452C0.105456 8.07134 0.16692 7.97759 0.244397 7.89866L7.74415 0.249084C7.90051 0.089598 8.11259 -1.68045e-09 8.33372 0C8.55485 1.68046e-09 8.76692 0.089598 8.92328 0.249084C9.07964 0.408569 9.16749 0.624878 9.16749 0.850425C9.16749 1.07597 9.07964 1.29228 8.92328 1.45177L2.84535 7.65005H19.1667C19.3877 7.65005 19.5997 7.73959 19.7559 7.89899C19.9122 8.05839 20 8.27458 20 8.5Z" fill="black"/>
</svg>
