<svg width="74" height="74" viewBox="0 0 74 74" fill="none" xmlns="http://www.w3.org/2000/svg">
<path d="M67.8333 5.69231H58.5833V2.84615C58.5833 2.09131 58.2585 1.36738 57.6802 0.833619C57.102 0.299862 56.3177 0 55.5 0C54.6822 0 53.898 0.299862 53.3198 0.833619C52.7415 1.36738 52.4167 2.09131 52.4167 2.84615V5.69231H21.5833V2.84615C21.5833 2.09131 21.2585 1.36738 20.6802 0.833619C20.102 0.299862 19.3178 0 18.5 0C17.6822 0 16.898 0.299862 16.3198 0.833619C15.7415 1.36738 15.4167 2.09131 15.4167 2.84615V5.69231H6.16667C4.53116 5.69231 2.96265 6.29203 1.80617 7.35955C0.6497 8.42706 0 9.87492 0 11.3846V68.3077C0 69.8174 0.6497 71.2652 1.80617 72.3328C2.96265 73.4003 4.53116 74 6.16667 74H67.8333C69.4688 74 71.0373 73.4003 72.1938 72.3328C73.3503 71.2652 74 69.8174 74 68.3077V11.3846C74 9.87492 73.3503 8.42706 72.1938 7.35955C71.0373 6.29203 69.4688 5.69231 67.8333 5.69231ZM15.4167 11.3846V14.2308C15.4167 14.9856 15.7415 15.7095 16.3198 16.2433C16.898 16.7771 17.6822 17.0769 18.5 17.0769C19.3178 17.0769 20.102 16.7771 20.6802 16.2433C21.2585 15.7095 21.5833 14.9856 21.5833 14.2308V11.3846H52.4167V14.2308C52.4167 14.9856 52.7415 15.7095 53.3198 16.2433C53.898 16.7771 54.6822 17.0769 55.5 17.0769C56.3177 17.0769 57.102 16.7771 57.6802 16.2433C58.2585 15.7095 58.5833 14.9856 58.5833 14.2308V11.3846H67.8333V22.7692H6.16667V11.3846H15.4167ZM67.8333 68.3077H6.16667V28.4615H67.8333V68.3077Z" fill="black"/>
</svg>
