<svg width="74" height="74" viewBox="0 0 74 74" fill="none" xmlns="http://www.w3.org/2000/svg">
<path d="M65.4615 0H8.53846C6.27392 0 4.10213 0.974551 2.50086 2.70926C0.899586 4.44397 0 6.79675 0 9.25V52.4167C0 54.8699 0.899586 57.2227 2.50086 58.9574C4.10213 60.6921 6.27392 61.6667 8.53846 61.6667H34.1538V67.8333H25.6154C24.8605 67.8333 24.1366 68.1582 23.6028 68.7364C23.0691 69.3147 22.7692 70.0989 22.7692 70.9167C22.7692 71.7344 23.0691 72.5187 23.6028 73.0969C24.1366 73.6751 24.8605 74 25.6154 74H48.3846C49.1395 74 49.8634 73.6751 50.3972 73.0969C50.9309 72.5187 51.2308 71.7344 51.2308 70.9167C51.2308 70.0989 50.9309 69.3147 50.3972 68.7364C49.8634 68.1582 49.1395 67.8333 48.3846 67.8333H39.8462V61.6667H65.4615C67.7261 61.6667 69.8979 60.6921 71.4991 58.9574C73.1004 57.2227 74 54.8699 74 52.4167V9.25C74 6.79675 73.1004 4.44397 71.4991 2.70926C69.8979 0.974551 67.7261 0 65.4615 0ZM8.53846 6.16667H65.4615C66.2164 6.16667 66.9403 6.49152 67.4741 7.06975C68.0078 7.64799 68.3077 8.43225 68.3077 9.25V40.0833H5.69231V9.25C5.69231 8.43225 5.99217 7.64799 6.52593 7.06975C7.05968 6.49152 7.78361 6.16667 8.53846 6.16667ZM65.4615 55.5H8.53846C7.78361 55.5 7.05968 55.1752 6.52593 54.5969C5.99217 54.0187 5.69231 53.2344 5.69231 52.4167V46.25H68.3077V52.4167C68.3077 53.2344 68.0078 54.0187 67.4741 54.5969C66.9403 55.1752 66.2164 55.5 65.4615 55.5Z" fill="black"/>
</svg>
