<svg width="31" height="17" viewBox="0 0 31 17" fill="none" xmlns="http://www.w3.org/2000/svg">
<path d="M25.3438 8.59375C25.3438 8.88383 25.2285 9.16203 25.0234 9.36715C24.8183 9.57227 24.5401 9.6875 24.25 9.6875H6.75C6.45992 9.6875 6.18172 9.57227 5.9766 9.36715C5.77148 9.16203 5.65625 8.88383 5.65625 8.59375C5.65625 8.30367 5.77148 8.02547 5.9766 7.82035C6.18172 7.61523 6.45992 7.5 6.75 7.5H24.25C24.5401 7.5 24.8183 7.61523 25.0234 7.82035C25.2285 8.02547 25.3438 8.30367 25.3438 8.59375ZM29.7188 0.9375H1.28125C0.991169 0.9375 0.71297 1.05273 0.507852 1.25785C0.302734 1.46297 0.1875 1.74117 0.1875 2.03125C0.1875 2.32133 0.302734 2.59953 0.507852 2.80465C0.71297 3.00977 0.991169 3.125 1.28125 3.125H29.7188C30.0088 3.125 30.287 3.00977 30.4921 2.80465C30.6973 2.59953 30.8125 2.32133 30.8125 2.03125C30.8125 1.74117 30.6973 1.46297 30.4921 1.25785C30.287 1.05273 30.0088 0.9375 29.7188 0.9375ZM18.7812 14.0625H12.2188C11.9287 14.0625 11.6505 14.1777 11.4454 14.3829C11.2402 14.588 11.125 14.8662 11.125 15.1562C11.125 15.4463 11.2402 15.7245 11.4454 15.9296C11.6505 16.1348 11.9287 16.25 12.2188 16.25H18.7812C19.0713 16.25 19.3495 16.1348 19.5546 15.9296C19.7598 15.7245 19.875 15.4463 19.875 15.1562C19.875 14.8662 19.7598 14.588 19.5546 14.3829C19.3495 14.1777 19.0713 14.0625 18.7812 14.0625Z" fill="black"/>
</svg>
