<svg width="65" height="67" viewBox="0 0 65 67" fill="none" xmlns="http://www.w3.org/2000/svg">
<path d="M64.2182 58.883L43.3301 24.4282V5.36H46.0389C46.7573 5.36 47.4463 5.07764 47.9543 4.57505C48.4623 4.07245 48.7476 3.39078 48.7476 2.68C48.7476 1.96922 48.4623 1.28755 47.9543 0.784954C47.4463 0.282356 46.7573 0 46.0389 0H18.951C18.2326 0 17.5436 0.282356 17.0356 0.784954C16.5276 1.28755 16.2422 1.96922 16.2422 2.68C16.2422 3.39078 16.5276 4.07245 17.0356 4.57505C17.5436 5.07764 18.2326 5.36 18.951 5.36H21.6598V24.4282L0.771656 58.883C0.27901 59.6956 0.0129046 60.6229 0.000457641 61.5704C-0.0119894 62.5179 0.229666 63.4517 0.7008 64.2767C1.17193 65.1017 1.8557 65.7884 2.68244 66.2668C3.50917 66.7452 4.44931 66.9982 5.40707 67H59.5828C60.5414 66.9999 61.4828 66.7482 62.311 66.2705C63.1391 65.7929 63.8244 65.1063 64.2967 64.281C64.769 63.4557 65.0116 62.5212 64.9996 61.5729C64.9876 60.6245 64.7214 59.6963 64.2284 58.883H64.2182ZM26.6913 26.5488C26.9447 26.1333 27.0782 25.6571 27.0774 25.1719V5.36H37.9125V25.1719C37.9117 25.6571 38.0452 26.1333 38.2985 26.5488L51.2397 47.905C47.1765 48.699 41.3967 48.364 33.7173 44.5182C28.3302 41.8214 23.2038 40.391 18.4059 40.2268L26.6913 26.5488ZM5.40707 61.64L15.0707 45.7007C19.8957 45.1178 25.3336 46.3205 31.2624 49.2919C37.6958 52.5113 43.1134 53.6067 47.5151 53.6067C49.7538 53.6165 51.9826 53.312 54.1347 52.7022L59.5828 61.64H5.40707Z" fill="black"/>
</svg>
