<svg width="46" height="46" viewBox="0 0 46 46" fill="none" xmlns="http://www.w3.org/2000/svg">
<path d="M19.125 43.625C19.125 44.1223 18.9275 44.5992 18.5758 44.9508C18.2242 45.3025 17.7473 45.5 17.25 45.5H2.25C1.75272 45.5 1.27581 45.3025 0.924175 44.9508C0.572544 44.5992 0.375 44.1223 0.375 43.625V2.375C0.375 1.87772 0.572544 1.40081 0.924175 1.04918C1.27581 0.697544 1.75272 0.5 2.25 0.5H17.25C17.7473 0.5 18.2242 0.697544 18.5758 1.04918C18.9275 1.40081 19.125 1.87772 19.125 2.375C19.125 2.87228 18.9275 3.34919 18.5758 3.70082C18.2242 4.05246 17.7473 4.25 17.25 4.25H4.125V41.75H17.25C17.7473 41.75 18.2242 41.9475 18.5758 42.2992C18.9275 42.6508 19.125 43.1277 19.125 43.625ZM44.8266 21.6734L35.4516 12.2984C35.0997 11.9466 34.6226 11.749 34.125 11.749C33.6274 11.749 33.1503 11.9466 32.7984 12.2984C32.4466 12.6503 32.249 13.1274 32.249 13.625C32.249 14.1226 32.4466 14.5997 32.7984 14.9516L38.9742 21.125H17.25C16.7527 21.125 16.2758 21.3225 15.9242 21.6742C15.5725 22.0258 15.375 22.5027 15.375 23C15.375 23.4973 15.5725 23.9742 15.9242 24.3258C16.2758 24.6775 16.7527 24.875 17.25 24.875H38.9742L32.7984 31.0484C32.4466 31.4003 32.249 31.8774 32.249 32.375C32.249 32.8726 32.4466 33.3497 32.7984 33.7016C33.1503 34.0534 33.6274 34.251 34.125 34.251C34.6226 34.251 35.0997 34.0534 35.4516 33.7016L44.8266 24.3266C45.0009 24.1524 45.1392 23.9456 45.2336 23.718C45.3279 23.4904 45.3765 23.2464 45.3765 23C45.3765 22.7536 45.3279 22.5096 45.2336 22.282C45.1392 22.0544 45.0009 21.8476 44.8266 21.6734Z" fill="black"/>
</svg>
