<svg width="74" height="74" viewBox="0 0 74 74" fill="none" xmlns="http://www.w3.org/2000/svg">
<path d="M68.3077 8.22207H39.8462V2.74069C39.8462 2.01381 39.5463 1.31671 39.0125 0.80273C38.4788 0.28875 37.7548 0 37 0C36.2452 0 35.5212 0.28875 34.9875 0.80273C34.4537 1.31671 34.1538 2.01381 34.1538 2.74069V8.22207H5.69231C4.18261 8.22207 2.73475 8.79957 1.66724 9.82753C0.599723 10.8555 0 12.2497 0 13.7035V54.8138C0 56.2676 0.599723 57.6618 1.66724 58.6897C2.73475 59.7177 4.18261 60.2952 5.69231 60.2952H19.6954L12.0072 69.545C11.5354 70.1129 11.3172 70.838 11.4006 71.5608C11.484 72.2835 11.8622 72.9448 12.4519 73.3991C13.0416 73.8534 13.7946 74.0635 14.5452 73.9832C15.2958 73.9029 15.9825 73.5388 16.4543 72.9709L26.9815 60.2952H47.0185L57.5457 72.9709C57.7793 73.2521 58.0681 73.4862 58.3957 73.6599C58.7232 73.8336 59.0831 73.9435 59.4548 73.9832C59.8264 74.023 60.2026 73.9919 60.5618 73.8916C60.9209 73.7914 61.2561 73.6241 61.5481 73.3991C61.8401 73.1742 62.0832 72.896 62.2636 72.5806C62.444 72.2652 62.5581 71.9186 62.5994 71.5608C62.6407 71.2029 62.6083 70.8407 62.5043 70.4948C62.4002 70.1489 62.2264 69.8262 61.9928 69.545L54.3046 60.2952H68.3077C69.8174 60.2952 71.2652 59.7177 72.3328 58.6897C73.4003 57.6618 74 56.2676 74 54.8138V13.7035C74 12.2497 73.4003 10.8555 72.3328 9.82753C71.2652 8.79957 69.8174 8.22207 68.3077 8.22207ZM68.3077 54.8138H5.69231V13.7035H68.3077V54.8138ZM28.4615 35.629V43.8511C28.4615 44.5779 28.1617 45.275 27.6279 45.789C27.0942 46.303 26.3702 46.5917 25.6154 46.5917C24.8605 46.5917 24.1366 46.303 23.6028 45.789C23.0691 45.275 22.7692 44.5779 22.7692 43.8511V35.629C22.7692 34.9021 23.0691 34.205 23.6028 33.691C24.1366 33.177 24.8605 32.8883 25.6154 32.8883C26.3702 32.8883 27.0942 33.177 27.6279 33.691C28.1617 34.205 28.4615 34.9021 28.4615 35.629ZM39.8462 30.1476V43.8511C39.8462 44.5779 39.5463 45.275 39.0125 45.789C38.4788 46.303 37.7548 46.5917 37 46.5917C36.2452 46.5917 35.5212 46.303 34.9875 45.789C34.4537 45.275 34.1538 44.5779 34.1538 43.8511V30.1476C34.1538 29.4207 34.4537 28.7236 34.9875 28.2096C35.5212 27.6957 36.2452 27.4069 37 27.4069C37.7548 27.4069 38.4788 27.6957 39.0125 28.2096C39.5463 28.7236 39.8462 29.4207 39.8462 30.1476ZM51.2308 24.6662V43.8511C51.2308 44.5779 50.9309 45.275 50.3972 45.789C49.8634 46.303 49.1395 46.5917 48.3846 46.5917C47.6298 46.5917 46.9058 46.303 46.3721 45.789C45.8383 45.275 45.5385 44.5779 45.5385 43.8511V24.6662C45.5385 23.9393 45.8383 23.2422 46.3721 22.7283C46.9058 22.2143 47.6298 21.9255 48.3846 21.9255C49.1395 21.9255 49.8634 22.2143 50.3972 22.7283C50.9309 23.2422 51.2308 23.9393 51.2308 24.6662Z" fill="black"/>
</svg>
