<svg width="82" height="82" viewBox="0 0 82 82" fill="none" xmlns="http://www.w3.org/2000/svg">
<path d="M41 0.375C32.9652 0.375 25.1107 2.75761 18.43 7.22155C11.7492 11.6855 6.54222 18.0302 3.46741 25.4535C0.392602 32.8767 -0.411908 41.0451 1.15562 48.9255C2.72314 56.806 6.5923 64.0447 12.2738 69.7262C17.9553 75.4077 25.194 79.2769 33.0745 80.8444C40.955 82.4119 49.1233 81.6074 56.5465 78.5326C63.9698 75.4578 70.3145 70.2508 74.7785 63.57C79.2424 56.8893 81.625 49.0349 81.625 41C81.6136 30.2291 77.3299 19.9025 69.7137 12.2863C62.0975 4.67015 51.7709 0.386374 41 0.375ZM19.9375 68.1484C22.1982 64.6128 25.3125 61.7032 28.9935 59.6877C32.6744 57.6723 36.8034 56.6158 41 56.6158C45.1966 56.6158 49.3257 57.6723 53.0066 59.6877C56.6875 61.7032 59.8018 64.6128 62.0625 68.1484C56.0404 72.832 48.629 75.3747 41 75.3747C33.371 75.3747 25.9596 72.832 19.9375 68.1484ZM28.5 37.875C28.5 35.4027 29.2331 32.986 30.6066 30.9304C31.9802 28.8748 33.9324 27.2726 36.2165 26.3265C38.5005 25.3804 41.0139 25.1329 43.4386 25.6152C45.8634 26.0975 48.0907 27.288 49.8389 29.0362C51.587 30.7843 52.7775 33.0116 53.2598 35.4364C53.7421 37.8611 53.4946 40.3745 52.5485 42.6585C51.6024 44.9426 50.0003 46.8949 47.9446 48.2684C45.889 49.6419 43.4723 50.375 41 50.375C37.6848 50.375 34.5054 49.058 32.1612 46.7138C29.817 44.3696 28.5 41.1902 28.5 37.875ZM66.6875 63.8164C63.2022 58.7659 58.3015 54.8587 52.6016 52.5859C55.6634 50.1744 57.8976 46.8687 58.9935 43.1285C60.0894 39.3883 59.9926 35.3996 58.7165 31.717C57.4404 28.0344 55.0484 24.841 51.8732 22.5808C48.698 20.3207 44.8975 19.1062 41 19.1062C37.1026 19.1062 33.302 20.3207 30.1268 22.5808C26.9516 24.841 24.5597 28.0344 23.2836 31.717C22.0074 35.3996 21.9106 39.3883 23.0065 43.1285C24.1025 46.8687 26.3367 50.1744 29.3985 52.5859C23.6985 54.8587 18.7978 58.7659 15.3125 63.8164C10.9085 58.8639 8.02999 52.7439 7.02363 46.1934C6.01728 39.6428 6.92598 32.941 9.64032 26.8949C12.3547 20.8488 16.7589 15.7163 22.3227 12.1154C27.8865 8.51444 34.3726 6.59862 41 6.59862C47.6274 6.59862 54.1136 8.51444 59.6773 12.1154C65.2411 15.7163 69.6454 20.8488 72.3597 26.8949C75.0741 32.941 75.9828 39.6428 74.9764 46.1934C73.9701 52.7439 71.0915 58.8639 66.6875 63.8164Z" fill="black"/>
</svg>
